<?xml version="1.0" standalone="no"?>
<!DOCTYPE svg PUBLIC "-//W3C//DTD SVG 20010904//EN"
 "http://www.w3.org/TR/2001/REC-SVG-20010904/DTD/svg10.dtd">
<svg version="1.0" xmlns="http://www.w3.org/2000/svg"
 width="300.000000pt" height="195.000000pt" viewBox="0 0 300.000000 195.000000"
 preserveAspectRatio="xMidYMid meet">
<metadata>
Created by potrace 1.10, written by Peter Selinger 2001-2011
</metadata>
<g transform="translate(0.000000,195.000000) scale(0.100000,-0.100000)"
fill="#000000" stroke="none">
<path d="M1741 1784 c0 -26 -4 -50 -7 -55 -9 -15 13 -10 26 6 7 8 20 15 29 15
15 0 17 -12 18 -82 1 -46 4 -137 6 -203 3 -66 8 -241 12 -390 6 -212 10 -272
21 -281 8 -6 14 -21 14 -33 0 -14 6 -21 20 -21 11 0 20 5 20 10 0 6 23 10 50
10 31 0 50 4 50 11 0 8 -14 10 -45 6 -26 -4 -55 -2 -70 5 -23 10 -25 16 -25
82 0 39 -3 172 -7 296 -4 124 -7 315 -7 425 -1 200 -1 200 22 203 38 6 24 22
-18 22 -22 0 -40 5 -40 10 0 6 -15 10 -33 10 -33 0 -34 -1 -36 -46z"/>
<path d="M1930 1773 c19 -9 53 -17 75 -18 69 -3 76 -5 71 -14 -3 -5 15 -12 42
-15 83 -9 127 -18 139 -28 7 -6 23 -8 35 -5 13 3 32 1 43 -3 12 -5 14 -9 6 -9
-13 -1 -13 -3 -2 -13 10 -10 15 -10 18 -1 7 20 104 4 127 -21 17 -18 18 -19
12 -2 -5 16 -3 17 21 11 16 -3 29 -10 31 -15 2 -5 9 -7 17 -4 7 3 29 -1 47 -9
18 -9 48 -18 66 -22 18 -4 30 -11 26 -16 -3 -5 -5 -117 -4 -249 1 -224 -1
-240 -17 -240 -15 0 -16 -2 -3 -10 16 -10 16 -11 18 -112 1 -38 6 -68 12 -68
6 0 10 126 10 358 l0 357 -62 14 c-35 7 -73 13 -85 13 -13 0 -23 4 -23 8 0 4
-30 11 -67 15 -38 4 -73 11 -80 17 -7 5 -16 7 -21 4 -5 -3 -31 2 -58 10 -26 8
-54 12 -61 10 -7 -3 -13 -1 -13 4 0 6 -13 10 -28 10 -16 0 -51 7 -78 15 -27 8
-65 18 -84 21 -19 3 -53 10 -75 15 -22 4 -51 8 -65 8 -23 -1 -22 -2 10 -16z"/>
<path d="M1574 1710 c-5 -5 -27 -10 -49 -11 -22 -1 -81 -8 -132 -15 -51 -8
-96 -14 -100 -13 -4 1 -15 0 -23 -3 -8 -4 -46 -10 -85 -15 -40 -4 -68 -12 -65
-18 6 -11 17 -10 150 10 52 7 141 19 197 25 64 8 107 18 114 26 13 16 8 29 -7
14z"/>
<path d="M1699 1698 c-1 -7 -1 -18 0 -24 1 -7 -11 -14 -26 -17 -34 -6 -46 1
-15 10 33 8 27 20 -13 25 -33 4 -35 2 -35 -24 0 -48 -5 -46 87 -35 l51 6 -1
-47 c-1 -26 2 -148 6 -272 17 -465 18 -575 5 -562 -13 13 -68 16 -105 6 -44
-12 -22 -22 51 -26 l75 -3 6 32 c6 35 -11 743 -21 835 -4 42 -9 55 -19 52 -9
-4 -15 4 -17 22 -3 28 -27 46 -29 22z"/>
<path d="M920 1639 c-14 -6 -38 -9 -53 -6 -15 2 -31 -1 -34 -6 -8 -13 99 -3
124 12 24 14 -2 14 -37 0z"/>
<path d="M765 1623 c-16 -3 -34 -9 -40 -15 -7 -8 -4 -9 8 -4 10 3 34 6 53 6
19 0 34 5 34 10 0 6 -6 9 -12 9 -7 -1 -26 -4 -43 -6z"/>
<path d="M540 1591 c-8 -5 -32 -14 -54 -21 -21 -7 -51 -25 -67 -40 -34 -32
-82 -100 -75 -107 2 -2 12 7 23 22 63 90 107 120 189 132 30 4 41 9 32 14 -16
11 -28 10 -48 0z"/>
<path d="M1089 1528 c-27 -60 -42 -79 -55 -74 -10 4 -20 -7 -32 -32 -9 -20
-25 -44 -35 -52 -29 -24 -32 -116 -6 -203 40 -137 91 -255 126 -292 11 -11 22
-28 26 -37 11 -30 25 -21 48 29 17 37 21 65 20 123 -2 73 -1 76 28 93 35 20
59 14 67 -19 8 -31 24 -31 24 0 0 33 -10 56 -24 56 -16 0 -68 80 -61 94 3 6
19 34 35 61 16 28 29 55 30 61 0 19 -151 214 -166 214 -8 0 -19 -10 -25 -22z
m46 -38 c3 -5 0 -10 -7 -11 -7 0 -3 -4 10 -10 13 -5 20 -13 17 -19 -3 -5 1
-10 9 -10 9 0 16 -6 16 -14 0 -8 7 -16 15 -20 8 -3 15 -15 15 -26 0 -12 4 -19
9 -16 5 4 7 -2 4 -13 -3 -10 0 -22 6 -25 5 -4 8 -13 5 -21 -4 -8 -10 -12 -15
-9 -5 3 -9 -9 -9 -26 0 -17 -6 -33 -13 -36 -20 -7 -18 -42 4 -77 26 -43 24
-51 -14 -66 l-33 -13 -2 -85 c-2 -90 -16 -138 -28 -95 -3 12 -12 22 -19 22 -8
0 -11 8 -8 19 3 12 -3 24 -16 33 -27 19 -51 66 -51 101 0 15 -4 27 -10 27 -5
0 -6 7 -3 17 4 11 3 14 -5 9 -8 -5 -12 2 -12 21 -1 15 -7 39 -15 53 -16 29
-20 76 -6 85 5 3 8 16 6 28 -3 15 3 28 20 41 14 10 25 25 25 33 0 17 24 43 39
43 13 0 36 41 33 58 -3 14 24 16 33 2z"/>
<path d="M1147 1266 c-11 -28 -8 -43 8 -43 16 0 18 11 6 41 -7 18 -8 18 -14 2z"/>
<path d="M1270 1449 c0 -12 16 -44 35 -70 19 -27 35 -54 35 -60 0 -5 5 -7 10
-4 6 3 10 -1 10 -9 0 -9 5 -16 10 -16 12 0 -11 47 -51 107 -16 23 -29 46 -29
52 0 5 -4 13 -10 16 -6 3 -10 -4 -10 -16z"/>
<path d="M307 1403 c-4 -3 -7 -14 -7 -24 0 -10 -13 -23 -30 -31 -21 -9 -30
-20 -30 -36 0 -13 4 -20 10 -17 6 3 10 12 10 20 0 7 12 15 27 17 24 3 27 8 29
41 1 40 1 40 -9 30z"/>
<path d="M814 1399 c-9 -15 12 -33 30 -26 9 4 16 13 16 22 0 17 -35 21 -46 4z"/>
<path d="M521 1371 c-16 -10 -6 -31 14 -31 14 0 27 24 18 34 -8 8 -15 7 -32
-3z"/>
<path d="M580 1359 c0 -25 33 -22 38 4 2 12 -3 17 -17 17 -15 0 -21 -6 -21
-21z"/>
<path d="M450 1349 c0 -25 33 -22 38 4 2 12 -3 17 -17 17 -15 0 -21 -6 -21
-21z"/>
<path d="M635 1243 c-121 -7 -256 -14 -300 -15 -104 -4 -105 -5 -105 -189 0
-119 2 -141 16 -146 9 -3 25 -26 35 -50 23 -54 23 -59 4 -43 -8 7 -15 21 -15
31 0 11 -4 19 -9 19 -27 0 38 -119 126 -232 44 -55 46 -57 69 -42 23 16 84 12
84 -5 0 -4 17 -13 37 -19 52 -16 68 3 21 22 -20 9 -38 22 -41 29 -3 8 -18 17
-34 21 -73 17 -163 49 -163 57 0 5 5 9 11 9 5 0 7 5 4 10 -4 6 -10 8 -15 5 -9
-5 -60 50 -60 66 0 16 16 10 40 -16 12 -13 27 -22 32 -19 5 3 15 1 22 -5 7 -6
29 -12 49 -13 20 -2 37 -6 37 -9 0 -3 105 -9 233 -12 177 -5 244 -3 282 7 49
13 50 14 47 47 -2 19 -10 46 -17 61 -20 42 -28 85 -16 93 18 10 12 27 -7 21
-14 -5 -22 8 -45 74 -15 44 -25 84 -22 89 3 6 1 12 -4 15 -5 3 -12 18 -15 33
-13 52 -38 112 -50 115 -6 2 -110 -2 -231 -9z m-97 -56 c3 -22 -1 -27 -18 -27
-26 0 -37 25 -20 45 18 22 34 13 38 -18z m307 3 c-4 -19 -3 -30 4 -30 6 0 11
8 11 18 0 28 29 -34 34 -76 3 -20 8 -54 11 -75 3 -22 12 -46 20 -54 34 -33 57
-114 44 -151 -5 -13 -4 -22 1 -22 6 0 10 5 10 11 0 26 18 -4 22 -37 3 -27 0
-39 -16 -50 -23 -16 -76 -19 -76 -4 0 6 -25 10 -55 10 -37 0 -55 -4 -55 -12 0
-10 -2 -10 -9 0 -5 9 -26 12 -62 11 -94 -5 -272 12 -328 31 -53 18 -54 18 -22
25 21 4 33 14 37 30 5 20 9 22 29 15 20 -8 24 -6 27 13 3 20 10 22 68 25 62 3
64 3 47 -16 -9 -10 -17 -25 -17 -34 0 -12 -11 -14 -54 -10 -31 2 -56 0 -60 -6
-12 -19 90 -37 111 -20 7 6 22 8 34 5 19 -5 20 -4 5 12 -13 14 -14 24 -6 45
14 38 13 41 -12 44 -61 6 -104 0 -121 -17 -18 -18 -20 -18 -44 7 -16 16 -21
28 -15 30 7 2 12 7 12 11 0 9 -42 8 -57 -2 -8 -5 -20 3 -33 25 -11 18 -24 34
-30 34 -5 1 -14 2 -20 3 -16 2 -11 47 7 62 14 12 16 12 8 0 -5 -10 -4 -12 3
-7 7 4 12 20 12 36 0 23 -5 31 -25 36 -17 4 -25 13 -25 28 1 28 28 65 38 50 4
-6 20 -14 36 -18 23 -6 27 -4 23 8 -5 12 1 16 26 17 18 1 46 2 62 3 29 1 30 0
29 -44 -1 -25 1 -35 3 -22 3 16 11 22 31 22 33 0 57 14 48 28 -16 27 33 37
207 40 l89 2 -7 -30z m-555 -111 c0 -24 -23 -21 -28 4 -2 10 3 17 12 17 10 0
16 -9 16 -21z m10 -134 c0 -25 47 -62 86 -70 29 -5 33 -9 24 -21 -7 -8 -9 -14
-5 -14 4 0 2 -6 -4 -14 -9 -11 -20 -12 -51 -4 -37 10 -63 39 -41 46 7 2 3 14
-9 29 -21 27 -27 63 -10 63 6 0 10 -7 10 -15z"/>
<path d="M436 1108 c-15 -58 1 -105 27 -79 8 8 8 11 -1 11 -9 0 -12 14 -10 40
2 45 -7 62 -16 28z"/>
<path d="M788 968 c-4 -30 -38 -37 -45 -9 -7 29 -23 26 -23 -4 0 -20 -5 -25
-23 -25 -13 0 -27 -3 -31 -7 -4 -5 -13 -8 -19 -8 -6 0 -12 -18 -13 -42 -1 -30
3 -43 12 -43 8 0 14 7 14 15 0 10 11 16 35 17 19 1 43 2 53 2 9 1 18 -3 18 -9
7 -49 30 -67 62 -46 10 6 4 10 -18 14 -23 5 -31 12 -28 24 4 22 53 30 74 12
11 -9 18 -9 26 -1 18 18 3 25 -60 26 -43 1 -64 7 -80 22 l-22 21 31 0 c32 0
49 15 49 46 0 25 -8 21 -12 -5z m-65 -84 c-7 -18 -54 -15 -61 4 -5 16 39 33
55 20 6 -5 9 -16 6 -24z"/>
<path d="M759 816 c-3 -3 -33 -6 -67 -8 -90 -3 -77 -28 14 -26 47 0 68 10 63
27 -3 7 -7 10 -10 7z"/>
<path d="M910 750 c0 -5 16 -10 35 -10 19 0 35 5 35 10 0 6 -16 10 -35 10 -19
0 -35 -4 -35 -10z"/>
<path d="M1405 1240 c-3 -5 -5 -10 -3 -10 41 -7 133 -1 136 8 5 15 -124 17
-133 2z"/>
<path d="M1353 1183 c-17 -36 -16 -63 1 -63 19 0 23 7 31 53 9 45 -13 52 -32
10z"/>
<path d="M1446 1104 c-10 -26 -34 -69 -52 -96 -32 -48 -34 -54 -34 -142 0 -52
6 -108 14 -132 17 -47 11 -124 -10 -124 -8 0 -14 -9 -14 -20 0 -12 -7 -32 -16
-45 -17 -26 -13 -75 6 -75 6 0 9 3 8 7 -3 13 14 57 38 94 13 20 20 40 16 44
-4 5 3 5 16 2 12 -3 22 -2 22 1 0 11 -17 34 -24 33 -3 -1 -5 2 -3 7 1 4 15 6
30 5 23 -1 26 1 17 12 -6 8 -17 12 -24 9 -18 -7 -38 76 -43 182 -4 87 -3 93
21 119 14 15 26 33 26 39 0 6 9 22 20 36 17 22 20 23 25 7 4 -9 11 -14 16 -11
11 6 11 5 11 -169 0 -127 1 -138 20 -148 13 -7 18 -17 15 -30 -4 -13 -1 -19 6
-16 7 2 12 13 11 24 0 15 5 19 22 15 20 -4 42 13 31 25 -3 2 -25 6 -49 7 -32
1 -42 5 -39 16 28 110 38 215 21 225 -5 3 -10 16 -10 28 0 12 -11 34 -24 48
-13 14 -27 35 -30 47 -11 32 -19 27 -40 -24z"/>
<path d="M1210 1053 c0 -10 7 -27 15 -37 14 -18 15 -18 25 8 12 33 6 46 -21
46 -12 0 -19 -7 -19 -17z"/>
<path d="M1582 1038 c5 -15 48 -18 48 -3 0 6 -11 11 -26 13 -18 3 -25 0 -22
-10z"/>
<path d="M1324 1013 c4 -27 2 -33 -12 -33 -15 -1 -15 -2 3 -15 30 -23 42 6 20
48 l-16 32 5 -32z"/>
<path d="M1717 1024 c-4 -4 -7 -18 -7 -31 0 -18 5 -24 18 -21 10 2 17 12 17
27 0 24 -15 37 -28 25z"/>
<path d="M1258 1015 c-3 -3 5 -28 18 -55 13 -28 24 -62 24 -77 -1 -27 -1 -27
-15 -9 -12 16 -15 17 -15 4 0 -23 11 -48 20 -48 5 0 13 15 19 33 9 26 7 42 -9
86 -20 57 -32 75 -42 66z"/>
<path d="M2731 898 c-1 -12 -15 -18 -61 -23 -33 -4 -63 -11 -66 -16 -3 -5 -1
-9 5 -9 6 0 8 -7 4 -16 -4 -11 -13 -13 -37 -8 -17 3 -35 12 -39 18 -6 7 -7 4
-3 -6 4 -13 -2 -20 -22 -24 -15 -4 -42 -15 -61 -25 -19 -10 -38 -16 -42 -13
-4 2 -52 -2 -106 -10 -163 -25 -177 -27 -213 -32 -19 -3 -61 -7 -92 -10 -32
-3 -58 -9 -58 -12 0 -8 -28 -10 -215 -12 -105 -1 -145 -5 -145 -14 0 -8 19
-12 57 -11 54 0 58 -2 63 -25 5 -24 8 -25 55 -19 l50 6 -48 1 c-34 2 -47 6
-45 15 3 8 29 13 74 15 38 1 94 7 124 13 119 24 238 41 293 42 31 1 57 5 57
10 0 10 38 9 44 -2 7 -10 56 -2 56 10 0 12 57 12 64 0 8 -13 -4 -42 -15 -35
-18 11 -8 -8 13 -25 26 -22 36 -112 16 -151 -15 -27 -44 -36 -68 -20 -12 8
-13 12 -2 19 11 7 11 9 -2 14 -10 4 -16 18 -16 37 0 25 -4 30 -25 30 -19 0
-25 -5 -24 -22 0 -13 3 -17 6 -10 9 23 20 12 26 -25 4 -20 2 -43 -3 -52 -8
-13 -9 -12 -10 7 0 12 -4 22 -10 22 -5 0 -10 -6 -10 -14 0 -8 -5 -16 -12 -18
-14 -5 -58 14 -58 25 0 5 -5 5 -10 2 -6 -4 -17 -1 -25 5 -8 6 -19 9 -25 5 -6
-4 -32 -9 -58 -12 -26 -3 -65 -12 -87 -20 -22 -8 -50 -15 -62 -15 -13 0 -23
-4 -23 -9 0 -5 -20 -9 -45 -9 -38 0 -45 -3 -45 -20 0 -17 -7 -20 -46 -20 -49
0 -114 -31 -114 -55 0 -19 -40 -27 -47 -9 -3 8 -2 31 2 52 6 37 6 37 -11 14
-11 -16 -15 -35 -11 -57 5 -28 0 -38 -29 -66 -40 -38 -41 -36 -14 22 21 47 28
153 10 164 -5 3 -10 17 -10 31 0 17 -6 24 -19 24 -10 0 -24 7 -31 15 -32 38
-120 -7 -154 -79 -33 -69 -9 -197 42 -225 9 -5 13 -13 9 -17 -10 -10 -59 18
-64 37 -3 10 -16 16 -34 17 -17 0 -36 5 -43 11 -7 6 -15 8 -18 6 -3 -3 -25 -5
-49 -5 -67 1 -79 3 -73 12 3 4 -5 12 -18 17 -21 8 -21 10 -4 16 10 5 21 3 25
-3 4 -7 17 -4 39 10 35 22 33 13 36 178 1 71 -2 89 -18 108 -24 27 -36 28 -36
2 0 -13 -9 -21 -27 -25 -16 -4 -47 -11 -71 -17 -24 -6 -57 -11 -73 -10 -26 1
-29 -2 -29 -32 l0 -33 69 1 c39 0 75 -5 83 -12 8 -6 27 -10 44 -9 l29 2 -4
-60 c-1 -33 -5 -64 -8 -69 -3 -4 -25 -6 -49 -3 -46 5 -46 5 -46 -48 0 -55 1
-57 26 -51 16 4 26 1 30 -10 5 -12 22 -14 97 -11 70 3 92 1 96 -10 3 -7 11
-13 19 -13 7 0 17 -7 22 -17 10 -17 17 -17 141 10 37 8 67 21 73 31 5 9 20 16
34 16 17 0 28 7 31 19 3 12 11 17 20 14 14 -5 48 31 48 52 0 6 19 11 43 13 23
2 42 7 42 13 0 5 14 9 30 9 23 0 30 4 30 20 0 18 7 20 60 20 33 0 60 4 60 8 0
11 195 56 214 49 9 -4 16 -13 16 -20 0 -11 21 -13 101 -11 87 3 104 6 121 24
10 11 23 20 27 20 11 0 1 142 -10 155 -18 19 -9 55 16 67 14 6 25 16 25 22 1
17 48 48 68 44 12 -3 16 -12 14 -32 -3 -25 -1 -27 30 -24 25 2 34 9 38 27 7
29 31 46 54 38 11 -4 16 -18 16 -45 0 -40 14 -62 40 -62 12 0 15 18 17 105 2
89 0 105 -13 105 -12 0 -14 -7 -10 -27 9 -40 -2 -48 -67 -49 -68 -1 -74 19 -6
24 50 3 63 12 56 38 -4 15 -5 16 -6 2z m-1531 -323 c-9 -11 -9 -15 -1 -15 6 0
11 -4 11 -8 0 -12 -101 -3 -117 10 -11 9 -12 13 -1 19 7 5 21 6 31 3 11 -3 17
0 17 10 0 9 12 16 33 18 35 3 47 -13 27 -37z m329 -30 c39 -20 54 -62 49 -139
-5 -84 -41 -136 -94 -136 -38 0 -78 33 -96 80 -11 29 -1 130 13 130 5 0 9 5 9
11 0 6 9 24 21 40 23 33 54 37 98 14z"/>
<path d="M1480 466 c0 -8 -4 -16 -9 -18 -6 -2 -6 -25 -2 -58 5 -30 9 -47 10
-37 0 9 7 17 15 17 19 0 30 32 14 42 -10 6 -10 10 -1 16 16 10 5 52 -13 52 -8
0 -14 -6 -14 -14z"/>
<path d="M1545 371 c-3 -12 -13 -21 -21 -21 -16 0 -19 -16 -4 -25 10 -6 45 53
37 62 -3 2 -8 -5 -12 -16z"/>
<path d="M1448 305 c18 -13 29 -15 45 -7 21 10 21 11 2 11 -11 1 -31 4 -45 7
l-25 6 23 -17z"/>
<path d="M2120 799 c0 -7 21 -9 61 -6 83 7 87 17 6 17 -41 0 -67 -4 -67 -11z"/>
<path d="M1100 760 c0 -16 4 -30 9 -30 5 0 9 14 9 30 -1 17 -5 30 -10 30 -4 0
-8 -13 -8 -30z"/>
<path d="M1308 719 c-21 -33 -50 -101 -44 -106 5 -5 46 61 46 75 0 6 5 12 11
14 6 2 10 12 8 23 -4 17 -6 16 -21 -6z"/>
<path d="M630 661 c0 -18 132 -33 147 -17 4 3 -1 6 -10 6 -10 0 -17 4 -17 8 0
5 -27 9 -60 10 -33 1 -60 -2 -60 -7z"/>
<path d="M2378 643 c-2 -16 -1 -41 2 -58 5 -25 7 -27 13 -12 10 26 9 97 -2 97
-5 0 -10 -12 -13 -27z"/>
<path d="M610 601 c0 -19 69 -33 188 -38 67 -3 122 -10 122 -14 0 -5 -7 -6
-15 -3 -8 4 -15 1 -15 -5 0 -14 47 -15 55 -1 3 6 2 10 -3 10 -6 0 -9 7 -8 16
1 14 -14 17 -90 20 -51 2 -120 8 -155 14 -78 12 -79 12 -79 1z"/>
<path d="M1230 578 c1 -36 13 -55 36 -55 29 0 30 7 3 41 -22 28 -39 34 -39 14z"/>
<path d="M450 520 c0 -20 15 -25 44 -14 15 6 15 8 -1 20 -26 19 -43 17 -43 -6z"/>
<path d="M547 516 c-9 -22 -1 -36 19 -36 18 0 18 11 1 34 -13 18 -14 18 -20 2z"/>
<path d="M812 493 c19 -3 30 -12 34 -29 3 -13 14 -24 23 -24 9 0 27 -3 41 -7
l25 -6 -20 23 c-14 16 -16 24 -7 27 30 11 -4 23 -61 22 -34 -1 -50 -4 -35 -6z"/>
<path d="M990 456 c0 -29 4 -34 28 -39 35 -7 41 0 35 41 -5 27 -9 32 -34 32
-26 0 -29 -3 -29 -34z"/>
<path d="M1300 445 l-25 -14 28 -1 c15 0 27 -5 27 -12 0 -6 2 -9 5 -6 3 3 2
14 -2 26 -7 19 -10 19 -33 7z"/>
<path d="M430 435 c0 -8 -4 -15 -8 -15 -5 0 -9 -6 -10 -12 -1 -7 -3 -26 -6
-43 -3 -16 -3 -21 1 -10 3 11 10 23 15 26 10 7 23 69 14 69 -3 0 -6 -7 -6 -15z"/>
<path d="M670 430 c0 -32 18 -61 63 -102 44 -39 46 -39 162 -23 63 9 114 -8
95 -30 -10 -12 -9 -15 4 -15 20 0 31 24 20 42 -5 7 -8 32 -6 56 1 23 -3 42 -8
42 -6 0 -10 -4 -10 -10 0 -15 -36 -12 -49 4 -7 8 -40 16 -79 19 -66 5 -140 19
-174 32 -14 6 -18 2 -18 -15z m122 -47 c17 -15 21 -15 29 -3 7 12 11 13 17 2
6 -9 18 -11 37 -6 18 5 30 2 36 -7 12 -19 11 -29 -2 -29 -5 0 -7 5 -4 10 4 7
-3 8 -22 4 -15 -4 -29 -11 -31 -16 -2 -4 -16 -8 -32 -8 -20 0 -27 5 -26 17 1
12 -9 20 -29 24 -16 4 -25 7 -20 8 6 1 3 6 -5 11 -12 8 -10 10 9 10 14 0 33
-8 43 -17z"/>
<path d="M668 288 c-3 -9 -28 -12 -81 -10 l-77 3 0 -30 c0 -16 -4 -32 -10 -36
-5 -3 -6 -12 -3 -21 3 -8 -3 -24 -15 -34 -12 -11 -25 -27 -30 -37 -14 -24 -89
-19 -117 7 -12 11 -25 20 -31 20 -5 0 -20 9 -33 19 -23 17 -61 18 -61 1 0 -12
26 -31 33 -24 7 7 67 -18 67 -28 0 -10 68 -28 105 -28 37 0 75 25 75 49 0 11
6 21 14 24 7 3 17 27 21 52 l7 47 74 -7 c47 -4 74 -3 74 3 0 6 3 17 6 26 3 9
2 16 -4 16 -6 0 -12 -5 -14 -12z"/>
<path d="M740 269 c0 -8 4 -19 8 -26 10 -16 88 -28 96 -15 3 5 -13 12 -36 15
-23 3 -48 14 -55 23 -10 13 -13 14 -13 3z"/>
<path d="M873 223 c-25 -5 -28 -23 -17 -107 5 -35 11 -46 24 -46 19 0 30 -19
30 -51 0 -16 7 -19 43 -18 l42 1 -33 9 c-21 6 -37 19 -44 37 -7 15 -21 40 -31
55 -18 27 -18 29 -2 41 16 12 16 13 1 19 -22 9 -20 24 4 32 18 6 30 37 13 34
-5 -1 -18 -4 -30 -6z"/>
<path d="M1160 29 c0 -36 26 -40 32 -5 4 18 0 26 -14 29 -14 4 -18 -1 -18 -24z"/>
<path d="M1050 10 c-19 -6 -9 -8 38 -9 35 -1 62 3 62 9 0 12 -64 12 -100 0z"/>
</g>
</svg>
